<?xml version="1.0" encoding="utf-8" standalone="no"?>
<!DOCTYPE svg PUBLIC "-//W3C//DTD SVG 1.1//EN"
  "http://www.w3.org/Graphics/SVG/1.1/DTD/svg11.dtd">
<svg xmlns:xlink="http://www.w3.org/1999/xlink" width="468.821562pt" height="323.561073pt" viewBox="0 0 468.821562 323.561073" xmlns="http://www.w3.org/2000/svg" version="1.1">
 <metadata>
  <rdf:RDF xmlns:dc="http://purl.org/dc/elements/1.1/" xmlns:cc="http://creativecommons.org/ns#" xmlns:rdf="http://www.w3.org/1999/02/22-rdf-syntax-ns#">
   <cc:Work>
    <dc:type rdf:resource="http://purl.org/dc/dcmitype/StillImage"/>
    <dc:date>2024-10-17T20:10:04.905412</dc:date>
    <dc:format>image/svg+xml</dc:format>
    <dc:creator>
     <cc:Agent>
      <dc:title>Matplotlib v3.7.0, https://matplotlib.org/</dc:title>
     </cc:Agent>
    </dc:creator>
   </cc:Work>
  </rdf:RDF>
 </metadata>
 <defs>
  <style type="text/css">*{stroke-linejoin: round; stroke-linecap: butt}</style>
 </defs>
 <g id="figure_1">
  <g id="patch_1">
   <path d="M 0 323.561073 
L 468.821562 323.561073 
L 468.821562 0 
L 0 0 
z
" style="fill: #ffffff"/>
  </g>
  <g id="axes_1">
   <g id="patch_2">
    <path d="M 43.78125 288.485136 
L 400.90125 288.485136 
L 400.90125 22.373136 
L 43.78125 22.373136 
z
" style="fill: #ffffff"/>
   </g>
   <g id="patch_3">
    <path d="M 49.73325 288.485136 
L 73.54125 288.485136 
L 73.54125 128.363397 
L 49.73325 128.363397 
z
" clip-path="url(#p3d78191f1d)" style="fill: #989898; stroke: #000000; stroke-linejoin: miter"/>
   </g>
   <g id="patch_4">
    <path d="M 109.25325 288.485136 
L 133.06125 288.485136 
L 133.06125 91.518179 
L 109.25325 91.518179 
z
" clip-path="url(#p3d78191f1d)" style="fill: #989898; stroke: #000000; stroke-linejoin: miter"/>
   </g>
   <g id="patch_5">
    <path d="M 168.77325 288.485136 
L 192.58125 288.485136 
L 192.58125 119.410353 
L 168.77325 119.410353 
z
" clip-path="url(#p3d78191f1d)" style="fill: #989898; stroke: #000000; stroke-linejoin: miter"/>
   </g>
   <g id="patch_6">
    <path d="M 228.29325 288.485136 
L 252.10125 288.485136 
L 252.10125 140.759918 
L 228.29325 140.759918 
z
" clip-path="url(#p3d78191f1d)" style="fill: #989898; stroke: #000000; stroke-linejoin: miter"/>
   </g>
   <g id="patch_7">
    <path d="M 287.81325 288.485136 
L 311.62125 288.485136 
L 311.62125 147.302527 
L 287.81325 147.302527 
z
" clip-path="url(#p3d78191f1d)" style="fill: #989898; stroke: #000000; stroke-linejoin: miter"/>
   </g>
   <g id="patch_8">
    <path d="M 347.33325 288.485136 
L 371.14125 288.485136 
L 371.14125 136.283397 
L 347.33325 136.283397 
z
" clip-path="url(#p3d78191f1d)" style="fill: #989898; stroke: #000000; stroke-linejoin: miter"/>
   </g>
   <g id="patch_9">
    <path d="M 73.54125 288.485136 
L 97.34925 288.485136 
L 97.34925 67.413832 
L 73.54125 67.413832 
z
" clip-path="url(#p3d78191f1d)" style="fill: #ed8f91; stroke: #000000; stroke-linejoin: miter"/>
   </g>
   <g id="patch_10">
    <path d="M 133.06125 288.485136 
L 156.86925 288.485136 
L 156.86925 63.970353 
L 133.06125 63.970353 
z
" clip-path="url(#p3d78191f1d)" style="fill: #ed8f91; stroke: #000000; stroke-linejoin: miter"/>
   </g>
   <g id="patch_11">
    <path d="M 192.58125 288.485136 
L 216.38925 288.485136 
L 216.38925 74.989484 
L 192.58125 74.989484 
z
" clip-path="url(#p3d78191f1d)" style="fill: #ed8f91; stroke: #000000; stroke-linejoin: miter"/>
   </g>
   <g id="patch_12">
    <path d="M 252.10125 288.485136 
L 275.90925 288.485136 
L 275.90925 83.598179 
L 252.10125 83.598179 
z
" clip-path="url(#p3d78191f1d)" style="fill: #ed8f91; stroke: #000000; stroke-linejoin: miter"/>
   </g>
   <g id="patch_13">
    <path d="M 311.62125 288.485136 
L 335.42925 288.485136 
L 335.42925 64.659049 
L 311.62125 64.659049 
z
" clip-path="url(#p3d78191f1d)" style="fill: #ed8f91; stroke: #000000; stroke-linejoin: miter"/>
   </g>
   <g id="patch_14">
    <path d="M 371.14125 288.485136 
L 394.94925 288.485136 
L 394.94925 116.311223 
L 371.14125 116.311223 
z
" clip-path="url(#p3d78191f1d)" style="fill: #ed8f91; stroke: #000000; stroke-linejoin: miter"/>
   </g>
   <g id="PathCollection_1"/>
   <g id="PathCollection_2"/>
   <g id="matplotlib.axis_1">
    <g id="xtick_1">
     <g id="line2d_1">
      <defs>
       <path id="m3032de1d5d" d="M 0 0 
L 0 3.5 
" style="stroke: #000000; stroke-width: 0.8"/>
      </defs>
      <g>
       <use xlink:href="#m3032de1d5d" x="73.54125" y="288.485136" style="stroke: #000000; stroke-width: 0.8"/>
      </g>
     </g>
     <g id="text_1">
      <!-- Pentanol -->
      <g transform="translate(51.820937 303.083573) scale(0.1 -0.1)">
       <defs>
        <path id="DejaVuSans-50" d="M 1259 4147 
L 1259 2394 
L 2053 2394 
Q 2494 2394 2734 2622 
Q 2975 2850 2975 3272 
Q 2975 3691 2734 3919 
Q 2494 4147 2053 4147 
L 1259 4147 
z
M 628 4666 
L 2053 4666 
Q 2838 4666 3239 4311 
Q 3641 3956 3641 3272 
Q 3641 2581 3239 2228 
Q 2838 1875 2053 1875 
L 1259 1875 
L 1259 0 
L 628 0 
L 628 4666 
z
" transform="scale(0.015625)"/>
        <path id="DejaVuSans-65" d="M 3597 1894 
L 3597 1613 
L 953 1613 
Q 991 1019 1311 708 
Q 1631 397 2203 397 
Q 2534 397 2845 478 
Q 3156 559 3463 722 
L 3463 178 
Q 3153 47 2828 -22 
Q 2503 -91 2169 -91 
Q 1331 -91 842 396 
Q 353 884 353 1716 
Q 353 2575 817 3079 
Q 1281 3584 2069 3584 
Q 2775 3584 3186 3129 
Q 3597 2675 3597 1894 
z
M 3022 2063 
Q 3016 2534 2758 2815 
Q 2500 3097 2075 3097 
Q 1594 3097 1305 2825 
Q 1016 2553 972 2059 
L 3022 2063 
z
" transform="scale(0.015625)"/>
        <path id="DejaVuSans-6e" d="M 3513 2113 
L 3513 0 
L 2938 0 
L 2938 2094 
Q 2938 2591 2744 2837 
Q 2550 3084 2163 3084 
Q 1697 3084 1428 2787 
Q 1159 2491 1159 1978 
L 1159 0 
L 581 0 
L 581 3500 
L 1159 3500 
L 1159 2956 
Q 1366 3272 1645 3428 
Q 1925 3584 2291 3584 
Q 2894 3584 3203 3211 
Q 3513 2838 3513 2113 
z
" transform="scale(0.015625)"/>
        <path id="DejaVuSans-74" d="M 1172 4494 
L 1172 3500 
L 2356 3500 
L 2356 3053 
L 1172 3053 
L 1172 1153 
Q 1172 725 1289 603 
Q 1406 481 1766 481 
L 2356 481 
L 2356 0 
L 1766 0 
Q 1100 0 847 248 
Q 594 497 594 1153 
L 594 3053 
L 172 3053 
L 172 3500 
L 594 3500 
L 594 4494 
L 1172 4494 
z
" transform="scale(0.015625)"/>
        <path id="DejaVuSans-61" d="M 2194 1759 
Q 1497 1759 1228 1600 
Q 959 1441 959 1056 
Q 959 750 1161 570 
Q 1363 391 1709 391 
Q 2188 391 2477 730 
Q 2766 1069 2766 1631 
L 2766 1759 
L 2194 1759 
z
M 3341 1997 
L 3341 0 
L 2766 0 
L 2766 531 
Q 2569 213 2275 61 
Q 1981 -91 1556 -91 
Q 1019 -91 701 211 
Q 384 513 384 1019 
Q 384 1609 779 1909 
Q 1175 2209 1959 2209 
L 2766 2209 
L 2766 2266 
Q 2766 2663 2505 2880 
Q 2244 3097 1772 3097 
Q 1472 3097 1187 3025 
Q 903 2953 641 2809 
L 641 3341 
Q 956 3463 1253 3523 
Q 1550 3584 1831 3584 
Q 2591 3584 2966 3190 
Q 3341 2797 3341 1997 
z
" transform="scale(0.015625)"/>
        <path id="DejaVuSans-6f" d="M 1959 3097 
Q 1497 3097 1228 2736 
Q 959 2375 959 1747 
Q 959 1119 1226 758 
Q 1494 397 1959 397 
Q 2419 397 2687 759 
Q 2956 1122 2956 1747 
Q 2956 2369 2687 2733 
Q 2419 3097 1959 3097 
z
M 1959 3584 
Q 2709 3584 3137 3096 
Q 3566 2609 3566 1747 
Q 3566 888 3137 398 
Q 2709 -91 1959 -91 
Q 1206 -91 779 398 
Q 353 888 353 1747 
Q 353 2609 779 3096 
Q 1206 3584 1959 3584 
z
" transform="scale(0.015625)"/>
        <path id="DejaVuSans-6c" d="M 603 4863 
L 1178 4863 
L 1178 0 
L 603 0 
L 603 4863 
z
" transform="scale(0.015625)"/>
       </defs>
       <use xlink:href="#DejaVuSans-50"/>
       <use xlink:href="#DejaVuSans-65" x="56.677734"/>
       <use xlink:href="#DejaVuSans-6e" x="118.201172"/>
       <use xlink:href="#DejaVuSans-74" x="181.580078"/>
       <use xlink:href="#DejaVuSans-61" x="220.789062"/>
       <use xlink:href="#DejaVuSans-6e" x="282.068359"/>
       <use xlink:href="#DejaVuSans-6f" x="345.447266"/>
       <use xlink:href="#DejaVuSans-6c" x="406.628906"/>
      </g>
      <!-- Hexanol -->
      <g transform="translate(53.151406 314.281386) scale(0.1 -0.1)">
       <defs>
        <path id="DejaVuSans-48" d="M 628 4666 
L 1259 4666 
L 1259 2753 
L 3553 2753 
L 3553 4666 
L 4184 4666 
L 4184 0 
L 3553 0 
L 3553 2222 
L 1259 2222 
L 1259 0 
L 628 0 
L 628 4666 
z
" transform="scale(0.015625)"/>
        <path id="DejaVuSans-78" d="M 3513 3500 
L 2247 1797 
L 3578 0 
L 2900 0 
L 1881 1375 
L 863 0 
L 184 0 
L 1544 1831 
L 300 3500 
L 978 3500 
L 1906 2253 
L 2834 3500 
L 3513 3500 
z
" transform="scale(0.015625)"/>
       </defs>
       <use xlink:href="#DejaVuSans-48"/>
       <use xlink:href="#DejaVuSans-65" x="75.195312"/>
       <use xlink:href="#DejaVuSans-78" x="134.96875"/>
       <use xlink:href="#DejaVuSans-61" x="194.148438"/>
       <use xlink:href="#DejaVuSans-6e" x="255.427734"/>
       <use xlink:href="#DejaVuSans-6f" x="318.806641"/>
       <use xlink:href="#DejaVuSans-6c" x="379.988281"/>
      </g>
     </g>
    </g>
    <g id="xtick_2">
     <g id="line2d_2">
      <g>
       <use xlink:href="#m3032de1d5d" x="133.06125" y="288.485136" style="stroke: #000000; stroke-width: 0.8"/>
      </g>
     </g>
     <g id="text_2">
      <!-- Pentanol -->
      <g transform="translate(111.340937 303.083573) scale(0.1 -0.1)">
       <use xlink:href="#DejaVuSans-50"/>
       <use xlink:href="#DejaVuSans-65" x="56.677734"/>
       <use xlink:href="#DejaVuSans-6e" x="118.201172"/>
       <use xlink:href="#DejaVuSans-74" x="181.580078"/>
       <use xlink:href="#DejaVuSans-61" x="220.789062"/>
       <use xlink:href="#DejaVuSans-6e" x="282.068359"/>
       <use xlink:href="#DejaVuSans-6f" x="345.447266"/>
       <use xlink:href="#DejaVuSans-6c" x="406.628906"/>
      </g>
      <!-- Heptanol -->
      <g transform="translate(110.408906 314.281386) scale(0.1 -0.1)">
       <defs>
        <path id="DejaVuSans-70" d="M 1159 525 
L 1159 -1331 
L 581 -1331 
L 581 3500 
L 1159 3500 
L 1159 2969 
Q 1341 3281 1617 3432 
Q 1894 3584 2278 3584 
Q 2916 3584 3314 3078 
Q 3713 2572 3713 1747 
Q 3713 922 3314 415 
Q 2916 -91 2278 -91 
Q 1894 -91 1617 61 
Q 1341 213 1159 525 
z
M 3116 1747 
Q 3116 2381 2855 2742 
Q 2594 3103 2138 3103 
Q 1681 3103 1420 2742 
Q 1159 2381 1159 1747 
Q 1159 1113 1420 752 
Q 1681 391 2138 391 
Q 2594 391 2855 752 
Q 3116 1113 3116 1747 
z
" transform="scale(0.015625)"/>
       </defs>
       <use xlink:href="#DejaVuSans-48"/>
       <use xlink:href="#DejaVuSans-65" x="75.195312"/>
       <use xlink:href="#DejaVuSans-70" x="136.71875"/>
       <use xlink:href="#DejaVuSans-74" x="200.195312"/>
       <use xlink:href="#DejaVuSans-61" x="239.404297"/>
       <use xlink:href="#DejaVuSans-6e" x="300.683594"/>
       <use xlink:href="#DejaVuSans-6f" x="364.0625"/>
       <use xlink:href="#DejaVuSans-6c" x="425.244141"/>
      </g>
     </g>
    </g>
    <g id="xtick_3">
     <g id="line2d_3">
      <g>
       <use xlink:href="#m3032de1d5d" x="192.58125" y="288.485136" style="stroke: #000000; stroke-width: 0.8"/>
      </g>
     </g>
     <g id="text_3">
      <!-- Pentanol -->
      <g transform="translate(170.860938 303.083573) scale(0.1 -0.1)">
       <use xlink:href="#DejaVuSans-50"/>
       <use xlink:href="#DejaVuSans-65" x="56.677734"/>
       <use xlink:href="#DejaVuSans-6e" x="118.201172"/>
       <use xlink:href="#DejaVuSans-74" x="181.580078"/>
       <use xlink:href="#DejaVuSans-61" x="220.789062"/>
       <use xlink:href="#DejaVuSans-6e" x="282.068359"/>
       <use xlink:href="#DejaVuSans-6f" x="345.447266"/>
       <use xlink:href="#DejaVuSans-6c" x="406.628906"/>
      </g>
      <!-- Octanol -->
      <g transform="translate(173.254688 314.281386) scale(0.1 -0.1)">
       <defs>
        <path id="DejaVuSans-4f" d="M 2522 4238 
Q 1834 4238 1429 3725 
Q 1025 3213 1025 2328 
Q 1025 1447 1429 934 
Q 1834 422 2522 422 
Q 3209 422 3611 934 
Q 4013 1447 4013 2328 
Q 4013 3213 3611 3725 
Q 3209 4238 2522 4238 
z
M 2522 4750 
Q 3503 4750 4090 4092 
Q 4678 3434 4678 2328 
Q 4678 1225 4090 567 
Q 3503 -91 2522 -91 
Q 1538 -91 948 565 
Q 359 1222 359 2328 
Q 359 3434 948 4092 
Q 1538 4750 2522 4750 
z
" transform="scale(0.015625)"/>
        <path id="DejaVuSans-63" d="M 3122 3366 
L 3122 2828 
Q 2878 2963 2633 3030 
Q 2388 3097 2138 3097 
Q 1578 3097 1268 2742 
Q 959 2388 959 1747 
Q 959 1106 1268 751 
Q 1578 397 2138 397 
Q 2388 397 2633 464 
Q 2878 531 3122 666 
L 3122 134 
Q 2881 22 2623 -34 
Q 2366 -91 2075 -91 
Q 1284 -91 818 406 
Q 353 903 353 1747 
Q 353 2603 823 3093 
Q 1294 3584 2113 3584 
Q 2378 3584 2631 3529 
Q 2884 3475 3122 3366 
z
" transform="scale(0.015625)"/>
       </defs>
       <use xlink:href="#DejaVuSans-4f"/>
       <use xlink:href="#DejaVuSans-63" x="78.710938"/>
       <use xlink:href="#DejaVuSans-74" x="133.691406"/>
       <use xlink:href="#DejaVuSans-61" x="172.900391"/>
       <use xlink:href="#DejaVuSans-6e" x="234.179688"/>
       <use xlink:href="#DejaVuSans-6f" x="297.558594"/>
       <use xlink:href="#DejaVuSans-6c" x="358.740234"/>
      </g>
     </g>
    </g>
    <g id="xtick_4">
     <g id="line2d_4">
      <g>
       <use xlink:href="#m3032de1d5d" x="252.10125" y="288.485136" style="stroke: #000000; stroke-width: 0.8"/>
      </g>
     </g>
     <g id="text_4">
      <!-- Hexanol -->
      <g transform="translate(231.711406 303.083573) scale(0.1 -0.1)">
       <use xlink:href="#DejaVuSans-48"/>
       <use xlink:href="#DejaVuSans-65" x="75.195312"/>
       <use xlink:href="#DejaVuSans-78" x="134.96875"/>
       <use xlink:href="#DejaVuSans-61" x="194.148438"/>
       <use xlink:href="#DejaVuSans-6e" x="255.427734"/>
       <use xlink:href="#DejaVuSans-6f" x="318.806641"/>
       <use xlink:href="#DejaVuSans-6c" x="379.988281"/>
      </g>
      <!-- Heptanol -->
      <g transform="translate(229.448906 314.281386) scale(0.1 -0.1)">
       <use xlink:href="#DejaVuSans-48"/>
       <use xlink:href="#DejaVuSans-65" x="75.195312"/>
       <use xlink:href="#DejaVuSans-70" x="136.71875"/>
       <use xlink:href="#DejaVuSans-74" x="200.195312"/>
       <use xlink:href="#DejaVuSans-61" x="239.404297"/>
       <use xlink:href="#DejaVuSans-6e" x="300.683594"/>
       <use xlink:href="#DejaVuSans-6f" x="364.0625"/>
       <use xlink:href="#DejaVuSans-6c" x="425.244141"/>
      </g>
     </g>
    </g>
    <g id="xtick_5">
     <g id="line2d_5">
      <g>
       <use xlink:href="#m3032de1d5d" x="311.62125" y="288.485136" style="stroke: #000000; stroke-width: 0.8"/>
      </g>
     </g>
     <g id="text_5">
      <!-- Hexanol -->
      <g transform="translate(291.231406 303.083573) scale(0.1 -0.1)">
       <use xlink:href="#DejaVuSans-48"/>
       <use xlink:href="#DejaVuSans-65" x="75.195312"/>
       <use xlink:href="#DejaVuSans-78" x="134.96875"/>
       <use xlink:href="#DejaVuSans-61" x="194.148438"/>
       <use xlink:href="#DejaVuSans-6e" x="255.427734"/>
       <use xlink:href="#DejaVuSans-6f" x="318.806641"/>
       <use xlink:href="#DejaVuSans-6c" x="379.988281"/>
      </g>
      <!-- Octanol -->
      <g transform="translate(292.294687 314.281386) scale(0.1 -0.1)">
       <use xlink:href="#DejaVuSans-4f"/>
       <use xlink:href="#DejaVuSans-63" x="78.710938"/>
       <use xlink:href="#DejaVuSans-74" x="133.691406"/>
       <use xlink:href="#DejaVuSans-61" x="172.900391"/>
       <use xlink:href="#DejaVuSans-6e" x="234.179688"/>
       <use xlink:href="#DejaVuSans-6f" x="297.558594"/>
       <use xlink:href="#DejaVuSans-6c" x="358.740234"/>
      </g>
     </g>
    </g>
    <g id="xtick_6">
     <g id="line2d_6">
      <g>
       <use xlink:href="#m3032de1d5d" x="371.14125" y="288.485136" style="stroke: #000000; stroke-width: 0.8"/>
      </g>
     </g>
     <g id="text_6">
      <!-- Heptanol -->
      <g transform="translate(348.488906 303.083573) scale(0.1 -0.1)">
       <use xlink:href="#DejaVuSans-48"/>
       <use xlink:href="#DejaVuSans-65" x="75.195312"/>
       <use xlink:href="#DejaVuSans-70" x="136.71875"/>
       <use xlink:href="#DejaVuSans-74" x="200.195312"/>
       <use xlink:href="#DejaVuSans-61" x="239.404297"/>
       <use xlink:href="#DejaVuSans-6e" x="300.683594"/>
       <use xlink:href="#DejaVuSans-6f" x="364.0625"/>
       <use xlink:href="#DejaVuSans-6c" x="425.244141"/>
      </g>
      <!-- Octanol -->
      <g transform="translate(351.814687 314.281386) scale(0.1 -0.1)">
       <use xlink:href="#DejaVuSans-4f"/>
       <use xlink:href="#DejaVuSans-63" x="78.710938"/>
       <use xlink:href="#DejaVuSans-74" x="133.691406"/>
       <use xlink:href="#DejaVuSans-61" x="172.900391"/>
       <use xlink:href="#DejaVuSans-6e" x="234.179688"/>
       <use xlink:href="#DejaVuSans-6f" x="297.558594"/>
       <use xlink:href="#DejaVuSans-6c" x="358.740234"/>
      </g>
     </g>
    </g>
   </g>
   <g id="matplotlib.axis_2">
    <g id="ytick_1">
     <g id="line2d_7">
      <defs>
       <path id="m356bed56f6" d="M 0 0 
L -3.5 0 
" style="stroke: #000000; stroke-width: 0.8"/>
      </defs>
      <g>
       <use xlink:href="#m356bed56f6" x="43.78125" y="288.485136" style="stroke: #000000; stroke-width: 0.8"/>
      </g>
     </g>
     <g id="text_7">
      <!-- 0.0 -->
      <g transform="translate(20.878125 292.284355) scale(0.1 -0.1)">
       <defs>
        <path id="DejaVuSans-30" d="M 2034 4250 
Q 1547 4250 1301 3770 
Q 1056 3291 1056 2328 
Q 1056 1369 1301 889 
Q 1547 409 2034 409 
Q 2525 409 2770 889 
Q 3016 1369 3016 2328 
Q 3016 3291 2770 3770 
Q 2525 4250 2034 4250 
z
M 2034 4750 
Q 2819 4750 3233 4129 
Q 3647 3509 3647 2328 
Q 3647 1150 3233 529 
Q 2819 -91 2034 -91 
Q 1250 -91 836 529 
Q 422 1150 422 2328 
Q 422 3509 836 4129 
Q 1250 4750 2034 4750 
z
" transform="scale(0.015625)"/>
        <path id="DejaVuSans-2e" d="M 684 794 
L 1344 794 
L 1344 0 
L 684 0 
L 684 794 
z
" transform="scale(0.015625)"/>
       </defs>
       <use xlink:href="#DejaVuSans-30"/>
       <use xlink:href="#DejaVuSans-2e" x="63.623047"/>
       <use xlink:href="#DejaVuSans-30" x="95.410156"/>
      </g>
     </g>
    </g>
    <g id="ytick_2">
     <g id="line2d_8">
      <g>
       <use xlink:href="#m356bed56f6" x="43.78125" y="233.389484" style="stroke: #000000; stroke-width: 0.8"/>
      </g>
     </g>
     <g id="text_8">
      <!-- 0.2 -->
      <g transform="translate(20.878125 237.188702) scale(0.1 -0.1)">
       <defs>
        <path id="DejaVuSans-32" d="M 1228 531 
L 3431 531 
L 3431 0 
L 469 0 
L 469 531 
Q 828 903 1448 1529 
Q 2069 2156 2228 2338 
Q 2531 2678 2651 2914 
Q 2772 3150 2772 3378 
Q 2772 3750 2511 3984 
Q 2250 4219 1831 4219 
Q 1534 4219 1204 4116 
Q 875 4013 500 3803 
L 500 4441 
Q 881 4594 1212 4672 
Q 1544 4750 1819 4750 
Q 2544 4750 2975 4387 
Q 3406 4025 3406 3419 
Q 3406 3131 3298 2873 
Q 3191 2616 2906 2266 
Q 2828 2175 2409 1742 
Q 1991 1309 1228 531 
z
" transform="scale(0.015625)"/>
       </defs>
       <use xlink:href="#DejaVuSans-30"/>
       <use xlink:href="#DejaVuSans-2e" x="63.623047"/>
       <use xlink:href="#DejaVuSans-32" x="95.410156"/>
      </g>
     </g>
    </g>
    <g id="ytick_3">
     <g id="line2d_9">
      <g>
       <use xlink:href="#m356bed56f6" x="43.78125" y="178.293832" style="stroke: #000000; stroke-width: 0.8"/>
      </g>
     </g>
     <g id="text_9">
      <!-- 0.4 -->
      <g transform="translate(20.878125 182.09305) scale(0.1 -0.1)">
       <defs>
        <path id="DejaVuSans-34" d="M 2419 4116 
L 825 1625 
L 2419 1625 
L 2419 4116 
z
M 2253 4666 
L 3047 4666 
L 3047 1625 
L 3713 1625 
L 3713 1100 
L 3047 1100 
L 3047 0 
L 2419 0 
L 2419 1100 
L 313 1100 
L 313 1709 
L 2253 4666 
z
" transform="scale(0.015625)"/>
       </defs>
       <use xlink:href="#DejaVuSans-30"/>
       <use xlink:href="#DejaVuSans-2e" x="63.623047"/>
       <use xlink:href="#DejaVuSans-34" x="95.410156"/>
      </g>
     </g>
    </g>
    <g id="ytick_4">
     <g id="line2d_10">
      <g>
       <use xlink:href="#m356bed56f6" x="43.78125" y="123.198179" style="stroke: #000000; stroke-width: 0.8"/>
      </g>
     </g>
     <g id="text_10">
      <!-- 0.6 -->
      <g transform="translate(20.878125 126.997398) scale(0.1 -0.1)">
       <defs>
        <path id="DejaVuSans-36" d="M 2113 2584 
Q 1688 2584 1439 2293 
Q 1191 2003 1191 1497 
Q 1191 994 1439 701 
Q 1688 409 2113 409 
Q 2538 409 2786 701 
Q 3034 994 3034 1497 
Q 3034 2003 2786 2293 
Q 2538 2584 2113 2584 
z
M 3366 4563 
L 3366 3988 
Q 3128 4100 2886 4159 
Q 2644 4219 2406 4219 
Q 1781 4219 1451 3797 
Q 1122 3375 1075 2522 
Q 1259 2794 1537 2939 
Q 1816 3084 2150 3084 
Q 2853 3084 3261 2657 
Q 3669 2231 3669 1497 
Q 3669 778 3244 343 
Q 2819 -91 2113 -91 
Q 1303 -91 875 529 
Q 447 1150 447 2328 
Q 447 3434 972 4092 
Q 1497 4750 2381 4750 
Q 2619 4750 2861 4703 
Q 3103 4656 3366 4563 
z
" transform="scale(0.015625)"/>
       </defs>
       <use xlink:href="#DejaVuSans-30"/>
       <use xlink:href="#DejaVuSans-2e" x="63.623047"/>
       <use xlink:href="#DejaVuSans-36" x="95.410156"/>
      </g>
     </g>
    </g>
    <g id="ytick_5">
     <g id="line2d_11">
      <g>
       <use xlink:href="#m356bed56f6" x="43.78125" y="68.102527" style="stroke: #000000; stroke-width: 0.8"/>
      </g>
     </g>
     <g id="text_11">
      <!-- 0.8 -->
      <g transform="translate(20.878125 71.901746) scale(0.1 -0.1)">
       <defs>
        <path id="DejaVuSans-38" d="M 2034 2216 
Q 1584 2216 1326 1975 
Q 1069 1734 1069 1313 
Q 1069 891 1326 650 
Q 1584 409 2034 409 
Q 2484 409 2743 651 
Q 3003 894 3003 1313 
Q 3003 1734 2745 1975 
Q 2488 2216 2034 2216 
z
M 1403 2484 
Q 997 2584 770 2862 
Q 544 3141 544 3541 
Q 544 4100 942 4425 
Q 1341 4750 2034 4750 
Q 2731 4750 3128 4425 
Q 3525 4100 3525 3541 
Q 3525 3141 3298 2862 
Q 3072 2584 2669 2484 
Q 3125 2378 3379 2068 
Q 3634 1759 3634 1313 
Q 3634 634 3220 271 
Q 2806 -91 2034 -91 
Q 1263 -91 848 271 
Q 434 634 434 1313 
Q 434 1759 690 2068 
Q 947 2378 1403 2484 
z
M 1172 3481 
Q 1172 3119 1398 2916 
Q 1625 2713 2034 2713 
Q 2441 2713 2670 2916 
Q 2900 3119 2900 3481 
Q 2900 3844 2670 4047 
Q 2441 4250 2034 4250 
Q 1625 4250 1398 4047 
Q 1172 3844 1172 3481 
z
" transform="scale(0.015625)"/>
       </defs>
       <use xlink:href="#DejaVuSans-30"/>
       <use xlink:href="#DejaVuSans-2e" x="63.623047"/>
       <use xlink:href="#DejaVuSans-38" x="95.410156"/>
      </g>
     </g>
    </g>
    <g id="text_12">
     <!-- accuracy -->
     <g transform="translate(14.798438 177.988511) rotate(-90) scale(0.1 -0.1)">
      <defs>
       <path id="DejaVuSans-75" d="M 544 1381 
L 544 3500 
L 1119 3500 
L 1119 1403 
Q 1119 906 1312 657 
Q 1506 409 1894 409 
Q 2359 409 2629 706 
Q 2900 1003 2900 1516 
L 2900 3500 
L 3475 3500 
L 3475 0 
L 2900 0 
L 2900 538 
Q 2691 219 2414 64 
Q 2138 -91 1772 -91 
Q 1169 -91 856 284 
Q 544 659 544 1381 
z
M 1991 3584 
L 1991 3584 
z
" transform="scale(0.015625)"/>
       <path id="DejaVuSans-72" d="M 2631 2963 
Q 2534 3019 2420 3045 
Q 2306 3072 2169 3072 
Q 1681 3072 1420 2755 
Q 1159 2438 1159 1844 
L 1159 0 
L 581 0 
L 581 3500 
L 1159 3500 
L 1159 2956 
Q 1341 3275 1631 3429 
Q 1922 3584 2338 3584 
Q 2397 3584 2469 3576 
Q 2541 3569 2628 3553 
L 2631 2963 
z
" transform="scale(0.015625)"/>
       <path id="DejaVuSans-79" d="M 2059 -325 
Q 1816 -950 1584 -1140 
Q 1353 -1331 966 -1331 
L 506 -1331 
L 506 -850 
L 844 -850 
Q 1081 -850 1212 -737 
Q 1344 -625 1503 -206 
L 1606 56 
L 191 3500 
L 800 3500 
L 1894 763 
L 2988 3500 
L 3597 3500 
L 2059 -325 
z
" transform="scale(0.015625)"/>
      </defs>
      <use xlink:href="#DejaVuSans-61"/>
      <use xlink:href="#DejaVuSans-63" x="61.279297"/>
      <use xlink:href="#DejaVuSans-63" x="116.259766"/>
      <use xlink:href="#DejaVuSans-75" x="171.240234"/>
      <use xlink:href="#DejaVuSans-72" x="234.619141"/>
      <use xlink:href="#DejaVuSans-61" x="275.732422"/>
      <use xlink:href="#DejaVuSans-63" x="337.011719"/>
      <use xlink:href="#DejaVuSans-79" x="391.992188"/>
     </g>
    </g>
   </g>
   <g id="line2d_12">
    <path d="M 61.63725 142.366001 
L 61.63725 114.360792 
" clip-path="url(#p3d78191f1d)" style="fill: none; stroke: #424242; stroke-width: 2.7; stroke-linecap: square"/>
   </g>
   <g id="line2d_13">
    <path d="M 52.70925 142.366001 
L 70.56525 142.366001 
" clip-path="url(#p3d78191f1d)" style="fill: none; stroke: #424242; stroke-width: 2.7; stroke-linecap: square"/>
   </g>
   <g id="line2d_14">
    <path d="M 52.70925 114.360792 
L 70.56525 114.360792 
" clip-path="url(#p3d78191f1d)" style="fill: none; stroke: #424242; stroke-width: 2.7; stroke-linecap: square"/>
   </g>
   <g id="line2d_15">
    <path d="M 121.15725 102.732354 
L 121.15725 80.304005 
" clip-path="url(#p3d78191f1d)" style="fill: none; stroke: #424242; stroke-width: 2.7; stroke-linecap: square"/>
   </g>
   <g id="line2d_16">
    <path d="M 112.22925 102.732354 
L 130.08525 102.732354 
" clip-path="url(#p3d78191f1d)" style="fill: none; stroke: #424242; stroke-width: 2.7; stroke-linecap: square"/>
   </g>
   <g id="line2d_17">
    <path d="M 112.22925 80.304005 
L 130.08525 80.304005 
" clip-path="url(#p3d78191f1d)" style="fill: none; stroke: #424242; stroke-width: 2.7; stroke-linecap: square"/>
   </g>
   <g id="line2d_18">
    <path d="M 180.67725 127.591268 
L 180.67725 111.229439 
" clip-path="url(#p3d78191f1d)" style="fill: none; stroke: #424242; stroke-width: 2.7; stroke-linecap: square"/>
   </g>
   <g id="line2d_19">
    <path d="M 171.74925 127.591268 
L 189.60525 127.591268 
" clip-path="url(#p3d78191f1d)" style="fill: none; stroke: #424242; stroke-width: 2.7; stroke-linecap: square"/>
   </g>
   <g id="line2d_20">
    <path d="M 171.74925 111.229439 
L 189.60525 111.229439 
" clip-path="url(#p3d78191f1d)" style="fill: none; stroke: #424242; stroke-width: 2.7; stroke-linecap: square"/>
   </g>
   <g id="line2d_21">
    <path d="M 240.19725 153.232048 
L 240.19725 128.287789 
" clip-path="url(#p3d78191f1d)" style="fill: none; stroke: #424242; stroke-width: 2.7; stroke-linecap: square"/>
   </g>
   <g id="line2d_22">
    <path d="M 231.26925 153.232048 
L 249.12525 153.232048 
" clip-path="url(#p3d78191f1d)" style="fill: none; stroke: #424242; stroke-width: 2.7; stroke-linecap: square"/>
   </g>
   <g id="line2d_23">
    <path d="M 231.26925 128.287789 
L 249.12525 128.287789 
" clip-path="url(#p3d78191f1d)" style="fill: none; stroke: #424242; stroke-width: 2.7; stroke-linecap: square"/>
   </g>
   <g id="line2d_24">
    <path d="M 299.71725 156.538682 
L 299.71725 138.066373 
" clip-path="url(#p3d78191f1d)" style="fill: none; stroke: #424242; stroke-width: 2.7; stroke-linecap: square"/>
   </g>
   <g id="line2d_25">
    <path d="M 290.78925 156.538682 
L 308.64525 156.538682 
" clip-path="url(#p3d78191f1d)" style="fill: none; stroke: #424242; stroke-width: 2.7; stroke-linecap: square"/>
   </g>
   <g id="line2d_26">
    <path d="M 290.78925 138.066373 
L 308.64525 138.066373 
" clip-path="url(#p3d78191f1d)" style="fill: none; stroke: #424242; stroke-width: 2.7; stroke-linecap: square"/>
   </g>
   <g id="line2d_27">
    <path d="M 359.23725 147.373016 
L 359.23725 125.193777 
" clip-path="url(#p3d78191f1d)" style="fill: none; stroke: #424242; stroke-width: 2.7; stroke-linecap: square"/>
   </g>
   <g id="line2d_28">
    <path d="M 350.30925 147.373016 
L 368.16525 147.373016 
" clip-path="url(#p3d78191f1d)" style="fill: none; stroke: #424242; stroke-width: 2.7; stroke-linecap: square"/>
   </g>
   <g id="line2d_29">
    <path d="M 350.30925 125.193777 
L 368.16525 125.193777 
" clip-path="url(#p3d78191f1d)" style="fill: none; stroke: #424242; stroke-width: 2.7; stroke-linecap: square"/>
   </g>
   <g id="line2d_30">
    <path d="M 85.44525 80.332285 
L 85.44525 54.495378 
" clip-path="url(#p3d78191f1d)" style="fill: none; stroke: #424242; stroke-width: 2.7; stroke-linecap: square"/>
   </g>
   <g id="line2d_31">
    <path d="M 76.51725 80.332285 
L 94.37325 80.332285 
" clip-path="url(#p3d78191f1d)" style="fill: none; stroke: #424242; stroke-width: 2.7; stroke-linecap: square"/>
   </g>
   <g id="line2d_32">
    <path d="M 76.51725 54.495378 
L 94.37325 54.495378 
" clip-path="url(#p3d78191f1d)" style="fill: none; stroke: #424242; stroke-width: 2.7; stroke-linecap: square"/>
   </g>
   <g id="line2d_33">
    <path d="M 144.96525 71.295915 
L 144.96525 56.644792 
" clip-path="url(#p3d78191f1d)" style="fill: none; stroke: #424242; stroke-width: 2.7; stroke-linecap: square"/>
   </g>
   <g id="line2d_34">
    <path d="M 136.03725 71.295915 
L 153.89325 71.295915 
" clip-path="url(#p3d78191f1d)" style="fill: none; stroke: #424242; stroke-width: 2.7; stroke-linecap: square"/>
   </g>
   <g id="line2d_35">
    <path d="M 136.03725 56.644792 
L 153.89325 56.644792 
" clip-path="url(#p3d78191f1d)" style="fill: none; stroke: #424242; stroke-width: 2.7; stroke-linecap: square"/>
   </g>
   <g id="line2d_36">
    <path d="M 204.48525 88.832095 
L 204.48525 61.146872 
" clip-path="url(#p3d78191f1d)" style="fill: none; stroke: #424242; stroke-width: 2.7; stroke-linecap: square"/>
   </g>
   <g id="line2d_37">
    <path d="M 195.55725 88.832095 
L 213.41325 88.832095 
" clip-path="url(#p3d78191f1d)" style="fill: none; stroke: #424242; stroke-width: 2.7; stroke-linecap: square"/>
   </g>
   <g id="line2d_38">
    <path d="M 195.55725 61.146872 
L 213.41325 61.146872 
" clip-path="url(#p3d78191f1d)" style="fill: none; stroke: #424242; stroke-width: 2.7; stroke-linecap: square"/>
   </g>
   <g id="line2d_39">
    <path d="M 264.00525 89.908837 
L 264.00525 77.287521 
" clip-path="url(#p3d78191f1d)" style="fill: none; stroke: #424242; stroke-width: 2.7; stroke-linecap: square"/>
   </g>
   <g id="line2d_40">
    <path d="M 255.07725 89.908837 
L 272.93325 89.908837 
" clip-path="url(#p3d78191f1d)" style="fill: none; stroke: #424242; stroke-width: 2.7; stroke-linecap: square"/>
   </g>
   <g id="line2d_41">
    <path d="M 255.07725 77.287521 
L 272.93325 77.287521 
" clip-path="url(#p3d78191f1d)" style="fill: none; stroke: #424242; stroke-width: 2.7; stroke-linecap: square"/>
   </g>
   <g id="line2d_42">
    <path d="M 323.52525 69.672829 
L 323.52525 59.645269 
" clip-path="url(#p3d78191f1d)" style="fill: none; stroke: #424242; stroke-width: 2.7; stroke-linecap: square"/>
   </g>
   <g id="line2d_43">
    <path d="M 314.59725 69.672829 
L 332.45325 69.672829 
" clip-path="url(#p3d78191f1d)" style="fill: none; stroke: #424242; stroke-width: 2.7; stroke-linecap: square"/>
   </g>
   <g id="line2d_44">
    <path d="M 314.59725 59.645269 
L 332.45325 59.645269 
" clip-path="url(#p3d78191f1d)" style="fill: none; stroke: #424242; stroke-width: 2.7; stroke-linecap: square"/>
   </g>
   <g id="line2d_45">
    <path d="M 383.04525 127.513307 
L 383.04525 105.109139 
" clip-path="url(#p3d78191f1d)" style="fill: none; stroke: #424242; stroke-width: 2.7; stroke-linecap: square"/>
   </g>
   <g id="line2d_46">
    <path d="M 374.11725 127.513307 
L 391.97325 127.513307 
" clip-path="url(#p3d78191f1d)" style="fill: none; stroke: #424242; stroke-width: 2.7; stroke-linecap: square"/>
   </g>
   <g id="line2d_47">
    <path d="M 374.11725 105.109139 
L 391.97325 105.109139 
" clip-path="url(#p3d78191f1d)" style="fill: none; stroke: #424242; stroke-width: 2.7; stroke-linecap: square"/>
   </g>
   <g id="patch_15">
    <path d="M 43.78125 288.485136 
L 43.78125 22.373136 
" style="fill: none; stroke: #000000; stroke-width: 0.8; stroke-linejoin: miter; stroke-linecap: square"/>
   </g>
   <g id="patch_16">
    <path d="M 43.78125 288.485136 
L 400.90125 288.485136 
" style="fill: none; stroke: #000000; stroke-width: 0.8; stroke-linejoin: miter; stroke-linecap: square"/>
   </g>
   <g id="PathCollection_3">
    <defs>
     <path id="C0_0_8a2daee26e" d="M 0 2.5 
C 0.663008 2.5 1.29895 2.236584 1.767767 1.767767 
C 2.236584 1.29895 2.5 0.663008 2.5 -0 
C 2.5 -0.663008 2.236584 -1.29895 1.767767 -1.767767 
C 1.29895 -2.236584 0.663008 -2.5 0 -2.5 
C -0.663008 -2.5 -1.29895 -2.236584 -1.767767 -1.767767 
C -2.236584 -1.29895 -2.5 -0.663008 -2.5 0 
C -2.5 0.663008 -2.236584 1.29895 -1.767767 1.767767 
C -1.29895 2.236584 -0.663008 2.5 0 2.5 
z
"/>
    </defs>
    <g clip-path="url(#p3d78191f1d)">
     <use xlink:href="#C0_0_8a2daee26e" x="59.941433" y="142.481658" style="fill: #2e2e2e"/>
    </g>
    <g clip-path="url(#p3d78191f1d)">
     <use xlink:href="#C0_0_8a2daee26e" x="64.002999" y="139.726875" style="fill: #2e2e2e"/>
    </g>
    <g clip-path="url(#p3d78191f1d)">
     <use xlink:href="#C0_0_8a2daee26e" x="59.393396" y="145.23644" style="fill: #2e2e2e"/>
    </g>
    <g clip-path="url(#p3d78191f1d)">
     <use xlink:href="#C0_0_8a2daee26e" x="62.012934" y="172.784266" style="fill: #2e2e2e"/>
    </g>
    <g clip-path="url(#p3d78191f1d)">
     <use xlink:href="#C0_0_8a2daee26e" x="59.650637" y="65.347745" style="fill: #2e2e2e"/>
    </g>
    <g clip-path="url(#p3d78191f1d)">
     <use xlink:href="#C0_0_8a2daee26e" x="61.045307" y="112.179049" style="fill: #2e2e2e"/>
    </g>
    <g clip-path="url(#p3d78191f1d)">
     <use xlink:href="#C0_0_8a2daee26e" x="61.25529" y="79.121658" style="fill: #2e2e2e"/>
    </g>
    <g clip-path="url(#p3d78191f1d)">
     <use xlink:href="#C0_0_8a2daee26e" x="61.92535" y="170.029484" style="fill: #2e2e2e"/>
    </g>
   </g>
   <g id="PathCollection_4">
    <defs>
     <path id="C1_0_7dbbfac8c1" d="M 0 2.5 
C 0.663008 2.5 1.29895 2.236584 1.767767 1.767767 
C 2.236584 1.29895 2.5 0.663008 2.5 -0 
C 2.5 -0.663008 2.236584 -1.29895 1.767767 -1.767767 
C 1.29895 -2.236584 0.663008 -2.5 0 -2.5 
C -0.663008 -2.5 -1.29895 -2.236584 -1.767767 -1.767767 
C -2.236584 -1.29895 -2.5 -0.663008 -2.5 0 
C -2.5 0.663008 -2.236584 1.29895 -1.767767 1.767767 
C -1.29895 2.236584 -0.663008 2.5 0 2.5 
z
"/>
    </defs>
    <g clip-path="url(#p3d78191f1d)">
     <use xlink:href="#C1_0_7dbbfac8c1" x="83.988241" y="62.592962" style="fill: #fc0307"/>
    </g>
    <g clip-path="url(#p3d78191f1d)">
     <use xlink:href="#C1_0_7dbbfac8c1" x="84.233786" y="46.064266" style="fill: #fc0307"/>
    </g>
    <g clip-path="url(#p3d78191f1d)">
     <use xlink:href="#C1_0_7dbbfac8c1" x="84.061919" y="65.347745" style="fill: #fc0307"/>
    </g>
    <g clip-path="url(#p3d78191f1d)">
     <use xlink:href="#C1_0_7dbbfac8c1" x="86.094316" y="43.309484" style="fill: #fc0307"/>
    </g>
    <g clip-path="url(#p3d78191f1d)">
     <use xlink:href="#C1_0_7dbbfac8c1" x="85.13021" y="37.799918" style="fill: #fc0307"/>
    </g>
    <g clip-path="url(#p3d78191f1d)">
     <use xlink:href="#C1_0_7dbbfac8c1" x="86.185195" y="51.573832" style="fill: #fc0307"/>
    </g>
    <g clip-path="url(#p3d78191f1d)">
     <use xlink:href="#C1_0_7dbbfac8c1" x="85.007749" y="81.87644" style="fill: #fc0307"/>
    </g>
    <g clip-path="url(#p3d78191f1d)">
     <use xlink:href="#C1_0_7dbbfac8c1" x="87.418159" y="150.746005" style="fill: #fc0307"/>
    </g>
   </g>
   <g id="PathCollection_5">
    <defs>
     <path id="C2_0_9cc60dc459" d="M 0 2.5 
C 0.663008 2.5 1.29895 2.236584 1.767767 1.767767 
C 2.236584 1.29895 2.5 0.663008 2.5 -0 
C 2.5 -0.663008 2.236584 -1.29895 1.767767 -1.767767 
C 1.29895 -2.236584 0.663008 -2.5 0 -2.5 
C -0.663008 -2.5 -1.29895 -2.236584 -1.767767 -1.767767 
C -2.236584 -1.29895 -2.5 -0.663008 -2.5 0 
C -2.5 0.663008 -2.236584 1.29895 -1.767767 1.767767 
C -1.29895 2.236584 -0.663008 2.5 0 2.5 
z
"/>
    </defs>
    <g clip-path="url(#p3d78191f1d)">
     <use xlink:href="#C2_0_9cc60dc459" x="122.339327" y="112.179049" style="fill: #2e2e2e"/>
    </g>
    <g clip-path="url(#p3d78191f1d)">
     <use xlink:href="#C2_0_9cc60dc459" x="121.4365" y="114.933832" style="fill: #2e2e2e"/>
    </g>
    <g clip-path="url(#p3d78191f1d)">
     <use xlink:href="#C2_0_9cc60dc459" x="120.562028" y="79.121658" style="fill: #2e2e2e"/>
    </g>
    <g clip-path="url(#p3d78191f1d)">
     <use xlink:href="#C2_0_9cc60dc459" x="123.7937" y="142.481658" style="fill: #2e2e2e"/>
    </g>
    <g clip-path="url(#p3d78191f1d)">
     <use xlink:href="#C2_0_9cc60dc459" x="123.734466" y="46.064266" style="fill: #2e2e2e"/>
    </g>
    <g clip-path="url(#p3d78191f1d)">
     <use xlink:href="#C2_0_9cc60dc459" x="119.561743" y="73.612092" style="fill: #2e2e2e"/>
    </g>
    <g clip-path="url(#p3d78191f1d)">
     <use xlink:href="#C2_0_9cc60dc459" x="119.29684" y="62.592962" style="fill: #2e2e2e"/>
    </g>
    <g clip-path="url(#p3d78191f1d)">
     <use xlink:href="#C2_0_9cc60dc459" x="123.634961" y="101.159918" style="fill: #2e2e2e"/>
    </g>
   </g>
   <g id="PathCollection_6">
    <defs>
     <path id="C3_0_52bd3c5f8a" d="M 0 2.5 
C 0.663008 2.5 1.29895 2.236584 1.767767 1.767767 
C 2.236584 1.29895 2.5 0.663008 2.5 -0 
C 2.5 -0.663008 2.236584 -1.29895 1.767767 -1.767767 
C 1.29895 -2.236584 0.663008 -2.5 0 -2.5 
C -0.663008 -2.5 -1.29895 -2.236584 -1.767767 -1.767767 
C -2.236584 -1.29895 -2.5 -0.663008 -2.5 0 
C -2.5 0.663008 -2.236584 1.29895 -1.767767 1.767767 
C -1.29895 2.236584 -0.663008 2.5 0 2.5 
z
"/>
    </defs>
    <g clip-path="url(#p3d78191f1d)">
     <use xlink:href="#C3_0_52bd3c5f8a" x="146.030057" y="59.838179" style="fill: #fc0307"/>
    </g>
    <g clip-path="url(#p3d78191f1d)">
     <use xlink:href="#C3_0_52bd3c5f8a" x="142.274415" y="40.554701" style="fill: #fc0307"/>
    </g>
    <g clip-path="url(#p3d78191f1d)">
     <use xlink:href="#C3_0_52bd3c5f8a" x="143.196572" y="57.083397" style="fill: #fc0307"/>
    </g>
    <g clip-path="url(#p3d78191f1d)">
     <use xlink:href="#C3_0_52bd3c5f8a" x="142.427228" y="103.914701" style="fill: #fc0307"/>
    </g>
    <g clip-path="url(#p3d78191f1d)">
     <use xlink:href="#C3_0_52bd3c5f8a" x="147.137585" y="51.573832" style="fill: #fc0307"/>
    </g>
    <g clip-path="url(#p3d78191f1d)">
     <use xlink:href="#C3_0_52bd3c5f8a" x="147.030957" y="46.064266" style="fill: #fc0307"/>
    </g>
    <g clip-path="url(#p3d78191f1d)">
     <use xlink:href="#C3_0_52bd3c5f8a" x="146.52555" y="79.121658" style="fill: #fc0307"/>
    </g>
    <g clip-path="url(#p3d78191f1d)">
     <use xlink:href="#C3_0_52bd3c5f8a" x="142.805284" y="73.612092" style="fill: #fc0307"/>
    </g>
   </g>
   <g id="PathCollection_7">
    <defs>
     <path id="C4_0_53f9a158b9" d="M 0 2.5 
C 0.663008 2.5 1.29895 2.236584 1.767767 1.767767 
C 2.236584 1.29895 2.5 0.663008 2.5 -0 
C 2.5 -0.663008 2.236584 -1.29895 1.767767 -1.767767 
C 1.29895 -2.236584 0.663008 -2.5 0 -2.5 
C -0.663008 -2.5 -1.29895 -2.236584 -1.767767 -1.767767 
C -2.236584 -1.29895 -2.5 -0.663008 -2.5 0 
C -2.5 0.663008 -2.236584 1.29895 -1.767767 1.767767 
C -1.29895 2.236584 -0.663008 2.5 0 2.5 
z
"/>
    </defs>
    <g clip-path="url(#p3d78191f1d)">
     <use xlink:href="#C4_0_53f9a158b9" x="182.251327" y="120.443397" style="fill: #2e2e2e"/>
    </g>
    <g clip-path="url(#p3d78191f1d)">
     <use xlink:href="#C4_0_53f9a158b9" x="178.867377" y="123.198179" style="fill: #2e2e2e"/>
    </g>
    <g clip-path="url(#p3d78191f1d)">
     <use xlink:href="#C4_0_53f9a158b9" x="179.204597" y="139.726875" style="fill: #2e2e2e"/>
    </g>
    <g clip-path="url(#p3d78191f1d)">
     <use xlink:href="#C4_0_53f9a158b9" x="183.397782" y="142.481658" style="fill: #2e2e2e"/>
    </g>
    <g clip-path="url(#p3d78191f1d)">
     <use xlink:href="#C4_0_53f9a158b9" x="181.646913" y="95.650353" style="fill: #2e2e2e"/>
    </g>
    <g clip-path="url(#p3d78191f1d)">
     <use xlink:href="#C4_0_53f9a158b9" x="182.815117" y="92.895571" style="fill: #2e2e2e"/>
    </g>
    <g clip-path="url(#p3d78191f1d)">
     <use xlink:href="#C4_0_53f9a158b9" x="181.266563" y="92.895571" style="fill: #2e2e2e"/>
    </g>
    <g clip-path="url(#p3d78191f1d)">
     <use xlink:href="#C4_0_53f9a158b9" x="179.341482" y="147.991223" style="fill: #2e2e2e"/>
    </g>
   </g>
   <g id="PathCollection_8">
    <defs>
     <path id="C5_0_840938383a" d="M 0 2.5 
C 0.663008 2.5 1.29895 2.236584 1.767767 1.767767 
C 2.236584 1.29895 2.5 0.663008 2.5 -0 
C 2.5 -0.663008 2.236584 -1.29895 1.767767 -1.767767 
C 1.29895 -2.236584 0.663008 -2.5 0 -2.5 
C -0.663008 -2.5 -1.29895 -2.236584 -1.767767 -1.767767 
C -2.236584 -1.29895 -2.5 -0.663008 -2.5 0 
C -2.5 0.663008 -2.236584 1.29895 -1.767767 1.767767 
C -1.29895 2.236584 -0.663008 2.5 0 2.5 
z
"/>
    </defs>
    <g clip-path="url(#p3d78191f1d)">
     <use xlink:href="#C5_0_840938383a" x="201.641515" y="54.328614" style="fill: #fc0307"/>
    </g>
    <g clip-path="url(#p3d78191f1d)">
     <use xlink:href="#C5_0_840938383a" x="205.126488" y="70.85731" style="fill: #fc0307"/>
    </g>
    <g clip-path="url(#p3d78191f1d)">
     <use xlink:href="#C5_0_840938383a" x="202.704621" y="128.707745" style="fill: #fc0307"/>
    </g>
    <g clip-path="url(#p3d78191f1d)">
     <use xlink:href="#C5_0_840938383a" x="202.160736" y="103.914701" style="fill: #fc0307"/>
    </g>
    <g clip-path="url(#p3d78191f1d)">
     <use xlink:href="#C5_0_840938383a" x="201.853068" y="40.554701" style="fill: #fc0307"/>
    </g>
    <g clip-path="url(#p3d78191f1d)">
     <use xlink:href="#C5_0_840938383a" x="203.829121" y="35.045136" style="fill: #fc0307"/>
    </g>
    <g clip-path="url(#p3d78191f1d)">
     <use xlink:href="#C5_0_840938383a" x="201.836109" y="40.554701" style="fill: #fc0307"/>
    </g>
    <g clip-path="url(#p3d78191f1d)">
     <use xlink:href="#C5_0_840938383a" x="203.143908" y="125.952962" style="fill: #fc0307"/>
    </g>
   </g>
   <g id="PathCollection_9">
    <defs>
     <path id="C6_0_2eaadf1287" d="M 0 2.5 
C 0.663008 2.5 1.29895 2.236584 1.767767 1.767767 
C 2.236584 1.29895 2.5 0.663008 2.5 -0 
C 2.5 -0.663008 2.236584 -1.29895 1.767767 -1.767767 
C 1.29895 -2.236584 0.663008 -2.5 0 -2.5 
C -0.663008 -2.5 -1.29895 -2.236584 -1.767767 -1.767767 
C -2.236584 -1.29895 -2.5 -0.663008 -2.5 0 
C -2.5 0.663008 -2.236584 1.29895 -1.767767 1.767767 
C -1.29895 2.236584 -0.663008 2.5 0 2.5 
z
"/>
    </defs>
    <g clip-path="url(#p3d78191f1d)">
     <use xlink:href="#C6_0_2eaadf1287" x="240.234039" y="142.481658" style="fill: #2e2e2e"/>
    </g>
    <g clip-path="url(#p3d78191f1d)">
     <use xlink:href="#C6_0_2eaadf1287" x="239.937111" y="123.198179" style="fill: #2e2e2e"/>
    </g>
    <g clip-path="url(#p3d78191f1d)">
     <use xlink:href="#C6_0_2eaadf1287" x="243.154436" y="76.366875" style="fill: #2e2e2e"/>
    </g>
    <g clip-path="url(#p3d78191f1d)">
     <use xlink:href="#C6_0_2eaadf1287" x="241.278679" y="203.086875" style="fill: #2e2e2e"/>
    </g>
    <g clip-path="url(#p3d78191f1d)">
     <use xlink:href="#C6_0_2eaadf1287" x="239.270153" y="145.23644" style="fill: #2e2e2e"/>
    </g>
    <g clip-path="url(#p3d78191f1d)">
     <use xlink:href="#C6_0_2eaadf1287" x="239.161497" y="153.500788" style="fill: #2e2e2e"/>
    </g>
    <g clip-path="url(#p3d78191f1d)">
     <use xlink:href="#C6_0_2eaadf1287" x="242.249658" y="150.746005" style="fill: #2e2e2e"/>
    </g>
    <g clip-path="url(#p3d78191f1d)">
     <use xlink:href="#C6_0_2eaadf1287" x="237.316467" y="131.462527" style="fill: #2e2e2e"/>
    </g>
   </g>
   <g id="PathCollection_10">
    <defs>
     <path id="C7_0_0615fe5a33" d="M 0 2.5 
C 0.663008 2.5 1.29895 2.236584 1.767767 1.767767 
C 2.236584 1.29895 2.5 0.663008 2.5 -0 
C 2.5 -0.663008 2.236584 -1.29895 1.767767 -1.767767 
C 1.29895 -2.236584 0.663008 -2.5 0 -2.5 
C -0.663008 -2.5 -1.29895 -2.236584 -1.767767 -1.767767 
C -2.236584 -1.29895 -2.5 -0.663008 -2.5 0 
C -2.5 0.663008 -2.236584 1.29895 -1.767767 1.767767 
C -1.29895 2.236584 -0.663008 2.5 0 2.5 
z
"/>
    </defs>
    <g clip-path="url(#p3d78191f1d)">
     <use xlink:href="#C7_0_0615fe5a33" x="265.366477" y="62.592962" style="fill: #fc0307"/>
    </g>
    <g clip-path="url(#p3d78191f1d)">
     <use xlink:href="#C7_0_0615fe5a33" x="263.352577" y="112.179049" style="fill: #fc0307"/>
    </g>
    <g clip-path="url(#p3d78191f1d)">
     <use xlink:href="#C7_0_0615fe5a33" x="266.629757" y="79.121658" style="fill: #fc0307"/>
    </g>
    <g clip-path="url(#p3d78191f1d)">
     <use xlink:href="#C7_0_0615fe5a33" x="266.614157" y="81.87644" style="fill: #fc0307"/>
    </g>
    <g clip-path="url(#p3d78191f1d)">
     <use xlink:href="#C7_0_0615fe5a33" x="263.953138" y="68.102527" style="fill: #fc0307"/>
    </g>
    <g clip-path="url(#p3d78191f1d)">
     <use xlink:href="#C7_0_0615fe5a33" x="266.047258" y="70.85731" style="fill: #fc0307"/>
    </g>
    <g clip-path="url(#p3d78191f1d)">
     <use xlink:href="#C7_0_0615fe5a33" x="264.56997" y="106.669484" style="fill: #fc0307"/>
    </g>
    <g clip-path="url(#p3d78191f1d)">
     <use xlink:href="#C7_0_0615fe5a33" x="265.726117" y="87.386005" style="fill: #fc0307"/>
    </g>
   </g>
   <g id="PathCollection_11">
    <defs>
     <path id="C8_0_f165a8ca55" d="M 0 2.5 
C 0.663008 2.5 1.29895 2.236584 1.767767 1.767767 
C 2.236584 1.29895 2.5 0.663008 2.5 -0 
C 2.5 -0.663008 2.236584 -1.29895 1.767767 -1.767767 
C 1.29895 -2.236584 0.663008 -2.5 0 -2.5 
C -0.663008 -2.5 -1.29895 -2.236584 -1.767767 -1.767767 
C -2.236584 -1.29895 -2.5 -0.663008 -2.5 0 
C -2.5 0.663008 -2.236584 1.29895 -1.767767 1.767767 
C -1.29895 2.236584 -0.663008 2.5 0 2.5 
z
"/>
    </defs>
    <g clip-path="url(#p3d78191f1d)">
     <use xlink:href="#C8_0_f165a8ca55" x="300.119115" y="101.159918" style="fill: #2e2e2e"/>
    </g>
    <g clip-path="url(#p3d78191f1d)">
     <use xlink:href="#C8_0_f165a8ca55" x="300.197299" y="161.765136" style="fill: #2e2e2e"/>
    </g>
    <g clip-path="url(#p3d78191f1d)">
     <use xlink:href="#C8_0_f165a8ca55" x="296.790682" y="145.23644" style="fill: #2e2e2e"/>
    </g>
    <g clip-path="url(#p3d78191f1d)">
     <use xlink:href="#C8_0_f165a8ca55" x="301.291362" y="189.312962" style="fill: #2e2e2e"/>
    </g>
    <g clip-path="url(#p3d78191f1d)">
     <use xlink:href="#C8_0_f165a8ca55" x="301.196216" y="139.726875" style="fill: #2e2e2e"/>
    </g>
    <g clip-path="url(#p3d78191f1d)">
     <use xlink:href="#C8_0_f165a8ca55" x="299.167461" y="167.274701" style="fill: #2e2e2e"/>
    </g>
    <g clip-path="url(#p3d78191f1d)">
     <use xlink:href="#C8_0_f165a8ca55" x="298.252091" y="136.972092" style="fill: #2e2e2e"/>
    </g>
    <g clip-path="url(#p3d78191f1d)">
     <use xlink:href="#C8_0_f165a8ca55" x="298.182101" y="136.972092" style="fill: #2e2e2e"/>
    </g>
   </g>
   <g id="PathCollection_12">
    <defs>
     <path id="C9_0_4de2c659e1" d="M 0 2.5 
C 0.663008 2.5 1.29895 2.236584 1.767767 1.767767 
C 2.236584 1.29895 2.5 0.663008 2.5 -0 
C 2.5 -0.663008 2.236584 -1.29895 1.767767 -1.767767 
C 1.29895 -2.236584 0.663008 -2.5 0 -2.5 
C -0.663008 -2.5 -1.29895 -2.236584 -1.767767 -1.767767 
C -2.236584 -1.29895 -2.5 -0.663008 -2.5 0 
C -2.5 0.663008 -2.236584 1.29895 -1.767767 1.767767 
C -1.29895 2.236584 -0.663008 2.5 0 2.5 
z
"/>
    </defs>
    <g clip-path="url(#p3d78191f1d)">
     <use xlink:href="#C9_0_4de2c659e1" x="320.710318" y="40.554701" style="fill: #fc0307"/>
    </g>
    <g clip-path="url(#p3d78191f1d)">
     <use xlink:href="#C9_0_4de2c659e1" x="323.02458" y="73.612092" style="fill: #fc0307"/>
    </g>
    <g clip-path="url(#p3d78191f1d)">
     <use xlink:href="#C9_0_4de2c659e1" x="323.781741" y="59.838179" style="fill: #fc0307"/>
    </g>
    <g clip-path="url(#p3d78191f1d)">
     <use xlink:href="#C9_0_4de2c659e1" x="321.501649" y="65.347745" style="fill: #fc0307"/>
    </g>
    <g clip-path="url(#p3d78191f1d)">
     <use xlink:href="#C9_0_4de2c659e1" x="325.93278" y="59.838179" style="fill: #fc0307"/>
    </g>
    <g clip-path="url(#p3d78191f1d)">
     <use xlink:href="#C9_0_4de2c659e1" x="323.114325" y="81.87644" style="fill: #fc0307"/>
    </g>
    <g clip-path="url(#p3d78191f1d)">
     <use xlink:href="#C9_0_4de2c659e1" x="326.211593" y="54.328614" style="fill: #fc0307"/>
    </g>
    <g clip-path="url(#p3d78191f1d)">
     <use xlink:href="#C9_0_4de2c659e1" x="321.178836" y="81.87644" style="fill: #fc0307"/>
    </g>
   </g>
   <g id="PathCollection_13">
    <defs>
     <path id="Ca_0_e9ec72057a" d="M 0 2.5 
C 0.663008 2.5 1.29895 2.236584 1.767767 1.767767 
C 2.236584 1.29895 2.5 0.663008 2.5 -0 
C 2.5 -0.663008 2.236584 -1.29895 1.767767 -1.767767 
C 1.29895 -2.236584 0.663008 -2.5 0 -2.5 
C -0.663008 -2.5 -1.29895 -2.236584 -1.767767 -1.767767 
C -2.236584 -1.29895 -2.5 -0.663008 -2.5 0 
C -2.5 0.663008 -2.236584 1.29895 -1.767767 1.767767 
C -1.29895 2.236584 -0.663008 2.5 0 2.5 
z
"/>
    </defs>
    <g clip-path="url(#p3d78191f1d)">
     <use xlink:href="#Ca_0_e9ec72057a" x="359.393816" y="153.500788" style="fill: #2e2e2e"/>
    </g>
    <g clip-path="url(#p3d78191f1d)">
     <use xlink:href="#Ca_0_e9ec72057a" x="361.76851" y="106.669484" style="fill: #2e2e2e"/>
    </g>
    <g clip-path="url(#p3d78191f1d)">
     <use xlink:href="#Ca_0_e9ec72057a" x="360.210357" y="79.121658" style="fill: #2e2e2e"/>
    </g>
    <g clip-path="url(#p3d78191f1d)">
     <use xlink:href="#Ca_0_e9ec72057a" x="360.446216" y="142.481658" style="fill: #2e2e2e"/>
    </g>
    <g clip-path="url(#p3d78191f1d)">
     <use xlink:href="#Ca_0_e9ec72057a" x="357.232036" y="125.952962" style="fill: #2e2e2e"/>
    </g>
    <g clip-path="url(#p3d78191f1d)">
     <use xlink:href="#Ca_0_e9ec72057a" x="358.734893" y="147.991223" style="fill: #2e2e2e"/>
    </g>
    <g clip-path="url(#p3d78191f1d)">
     <use xlink:href="#Ca_0_e9ec72057a" x="357.263354" y="178.293832" style="fill: #2e2e2e"/>
    </g>
    <g clip-path="url(#p3d78191f1d)">
     <use xlink:href="#Ca_0_e9ec72057a" x="361.117321" y="156.255571" style="fill: #2e2e2e"/>
    </g>
   </g>
   <g id="PathCollection_14">
    <defs>
     <path id="Cb_0_30f51d8caa" d="M 0 2.5 
C 0.663008 2.5 1.29895 2.236584 1.767767 1.767767 
C 2.236584 1.29895 2.5 0.663008 2.5 -0 
C 2.5 -0.663008 2.236584 -1.29895 1.767767 -1.767767 
C 1.29895 -2.236584 0.663008 -2.5 0 -2.5 
C -0.663008 -2.5 -1.29895 -2.236584 -1.767767 -1.767767 
C -2.236584 -1.29895 -2.5 -0.663008 -2.5 0 
C -2.5 0.663008 -2.236584 1.29895 -1.767767 1.767767 
C -1.29895 2.236584 -0.663008 2.5 0 2.5 
z
"/>
    </defs>
    <g clip-path="url(#p3d78191f1d)">
     <use xlink:href="#Cb_0_30f51d8caa" x="383.459973" y="68.102527" style="fill: #fc0307"/>
    </g>
    <g clip-path="url(#p3d78191f1d)">
     <use xlink:href="#Cb_0_30f51d8caa" x="381.857466" y="76.366875" style="fill: #fc0307"/>
    </g>
    <g clip-path="url(#p3d78191f1d)">
     <use xlink:href="#Cb_0_30f51d8caa" x="381.935355" y="117.688614" style="fill: #fc0307"/>
    </g>
    <g clip-path="url(#p3d78191f1d)">
     <use xlink:href="#Cb_0_30f51d8caa" x="382.572237" y="131.462527" style="fill: #fc0307"/>
    </g>
    <g clip-path="url(#p3d78191f1d)">
     <use xlink:href="#Cb_0_30f51d8caa" x="382.241479" y="164.519918" style="fill: #fc0307"/>
    </g>
    <g clip-path="url(#p3d78191f1d)">
     <use xlink:href="#Cb_0_30f51d8caa" x="382.07423" y="117.688614" style="fill: #fc0307"/>
    </g>
    <g clip-path="url(#p3d78191f1d)">
     <use xlink:href="#Cb_0_30f51d8caa" x="382.238411" y="114.933832" style="fill: #fc0307"/>
    </g>
    <g clip-path="url(#p3d78191f1d)">
     <use xlink:href="#Cb_0_30f51d8caa" x="384.999487" y="139.726875" style="fill: #fc0307"/>
    </g>
   </g>
   <g id="text_13">
    <!-- ** -->
    <g transform="translate(67.265625 16.318125) scale(0.12 -0.12)">
     <defs>
      <path id="DejaVuSans-Bold-2a" d="M 3219 3803 
L 2188 3263 
L 3219 2719 
L 2981 2278 
L 1941 2853 
L 1941 1778 
L 1409 1778 
L 1409 2853 
L 366 2278 
L 128 2719 
L 1172 3263 
L 128 3803 
L 366 4244 
L 1409 3675 
L 1409 4750 
L 1941 4750 
L 1941 3675 
L 2981 4244 
L 3219 3803 
z
" transform="scale(0.015625)"/>
     </defs>
     <use xlink:href="#DejaVuSans-Bold-2a"/>
     <use xlink:href="#DejaVuSans-Bold-2a" x="52.294922"/>
    </g>
   </g>
   <g id="text_14">
    <!-- * -->
    <g transform="translate(129.923438 16.318125) scale(0.12 -0.12)">
     <use xlink:href="#DejaVuSans-Bold-2a"/>
    </g>
   </g>
   <g id="text_15">
    <!-- *** -->
    <g transform="translate(183.167813 16.318125) scale(0.12 -0.12)">
     <use xlink:href="#DejaVuSans-Bold-2a"/>
     <use xlink:href="#DejaVuSans-Bold-2a" x="52.294922"/>
     <use xlink:href="#DejaVuSans-Bold-2a" x="104.589844"/>
    </g>
   </g>
   <g id="text_16">
    <!-- ** -->
    <g transform="translate(245.825625 16.318125) scale(0.12 -0.12)">
     <use xlink:href="#DejaVuSans-Bold-2a"/>
     <use xlink:href="#DejaVuSans-Bold-2a" x="52.294922"/>
    </g>
   </g>
   <g id="text_17">
    <!-- *** -->
    <g transform="translate(302.207812 16.318125) scale(0.12 -0.12)">
     <use xlink:href="#DejaVuSans-Bold-2a"/>
     <use xlink:href="#DejaVuSans-Bold-2a" x="52.294922"/>
     <use xlink:href="#DejaVuSans-Bold-2a" x="104.589844"/>
    </g>
   </g>
   <g id="legend_1">
    <g id="patch_17">
     <path d="M 407.90125 103.763761 
L 459.621562 103.763761 
Q 461.621562 103.763761 461.621562 101.763761 
L 461.621562 29.373136 
Q 461.621562 27.373136 459.621562 27.373136 
L 407.90125 27.373136 
Q 405.90125 27.373136 405.90125 29.373136 
L 405.90125 101.763761 
Q 405.90125 103.763761 407.90125 103.763761 
z
" style="fill: #ffffff; opacity: 0.8; stroke: #cccccc; stroke-linejoin: miter"/>
    </g>
    <g id="text_18">
     <!-- Condition -->
     <g transform="translate(409.90125 38.971573) scale(0.1 -0.1)">
      <defs>
       <path id="DejaVuSans-43" d="M 4122 4306 
L 4122 3641 
Q 3803 3938 3442 4084 
Q 3081 4231 2675 4231 
Q 1875 4231 1450 3742 
Q 1025 3253 1025 2328 
Q 1025 1406 1450 917 
Q 1875 428 2675 428 
Q 3081 428 3442 575 
Q 3803 722 4122 1019 
L 4122 359 
Q 3791 134 3420 21 
Q 3050 -91 2638 -91 
Q 1578 -91 968 557 
Q 359 1206 359 2328 
Q 359 3453 968 4101 
Q 1578 4750 2638 4750 
Q 3056 4750 3426 4639 
Q 3797 4528 4122 4306 
z
" transform="scale(0.015625)"/>
       <path id="DejaVuSans-64" d="M 2906 2969 
L 2906 4863 
L 3481 4863 
L 3481 0 
L 2906 0 
L 2906 525 
Q 2725 213 2448 61 
Q 2172 -91 1784 -91 
Q 1150 -91 751 415 
Q 353 922 353 1747 
Q 353 2572 751 3078 
Q 1150 3584 1784 3584 
Q 2172 3584 2448 3432 
Q 2725 3281 2906 2969 
z
M 947 1747 
Q 947 1113 1208 752 
Q 1469 391 1925 391 
Q 2381 391 2643 752 
Q 2906 1113 2906 1747 
Q 2906 2381 2643 2742 
Q 2381 3103 1925 3103 
Q 1469 3103 1208 2742 
Q 947 2381 947 1747 
z
" transform="scale(0.015625)"/>
       <path id="DejaVuSans-69" d="M 603 3500 
L 1178 3500 
L 1178 0 
L 603 0 
L 603 3500 
z
M 603 4863 
L 1178 4863 
L 1178 4134 
L 603 4134 
L 603 4863 
z
" transform="scale(0.015625)"/>
      </defs>
      <use xlink:href="#DejaVuSans-43"/>
      <use xlink:href="#DejaVuSans-6f" x="69.824219"/>
      <use xlink:href="#DejaVuSans-6e" x="131.005859"/>
      <use xlink:href="#DejaVuSans-64" x="194.384766"/>
      <use xlink:href="#DejaVuSans-69" x="257.861328"/>
      <use xlink:href="#DejaVuSans-74" x="285.644531"/>
      <use xlink:href="#DejaVuSans-69" x="324.853516"/>
      <use xlink:href="#DejaVuSans-6f" x="352.636719"/>
      <use xlink:href="#DejaVuSans-6e" x="413.818359"/>
     </g>
    </g>
    <g id="PathCollection_15">
     <defs>
      <path id="m8f7666e721" d="M 0 3 
C 0.795609 3 1.55874 2.683901 2.12132 2.12132 
C 2.683901 1.55874 3 0.795609 3 0 
C 3 -0.795609 2.683901 -1.55874 2.12132 -2.12132 
C 1.55874 -2.683901 0.795609 -3 0 -3 
C -0.795609 -3 -1.55874 -2.683901 -2.12132 -2.12132 
C -2.683901 -1.55874 -3 -0.795609 -3 0 
C -3 0.795609 -2.683901 1.55874 -2.12132 2.12132 
C -1.55874 2.683901 -0.795609 3 0 3 
z
" style="stroke: #2e2e2e"/>
     </defs>
     <g>
      <use xlink:href="#m8f7666e721" x="424.827031" y="51.024698" style="fill: #2e2e2e; stroke: #2e2e2e"/>
     </g>
    </g>
    <g id="text_19">
     <!-- bf -->
     <g transform="translate(442.827031 53.649698) scale(0.1 -0.1)">
      <defs>
       <path id="DejaVuSans-62" d="M 3116 1747 
Q 3116 2381 2855 2742 
Q 2594 3103 2138 3103 
Q 1681 3103 1420 2742 
Q 1159 2381 1159 1747 
Q 1159 1113 1420 752 
Q 1681 391 2138 391 
Q 2594 391 2855 752 
Q 3116 1113 3116 1747 
z
M 1159 2969 
Q 1341 3281 1617 3432 
Q 1894 3584 2278 3584 
Q 2916 3584 3314 3078 
Q 3713 2572 3713 1747 
Q 3713 922 3314 415 
Q 2916 -91 2278 -91 
Q 1894 -91 1617 61 
Q 1341 213 1159 525 
L 1159 0 
L 581 0 
L 581 4863 
L 1159 4863 
L 1159 2969 
z
" transform="scale(0.015625)"/>
       <path id="DejaVuSans-66" d="M 2375 4863 
L 2375 4384 
L 1825 4384 
Q 1516 4384 1395 4259 
Q 1275 4134 1275 3809 
L 1275 3500 
L 2222 3500 
L 2222 3053 
L 1275 3053 
L 1275 0 
L 697 0 
L 697 3053 
L 147 3053 
L 147 3500 
L 697 3500 
L 697 3744 
Q 697 4328 969 4595 
Q 1241 4863 1831 4863 
L 2375 4863 
z
" transform="scale(0.015625)"/>
      </defs>
      <use xlink:href="#DejaVuSans-62"/>
      <use xlink:href="#DejaVuSans-66" x="63.476562"/>
     </g>
    </g>
    <g id="PathCollection_16">
     <defs>
      <path id="m8c0cd97421" d="M 0 3 
C 0.795609 3 1.55874 2.683901 2.12132 2.12132 
C 2.683901 1.55874 3 0.795609 3 0 
C 3 -0.795609 2.683901 -1.55874 2.12132 -2.12132 
C 1.55874 -2.683901 0.795609 -3 0 -3 
C -0.795609 -3 -1.55874 -2.683901 -2.12132 -2.12132 
C -2.683901 -1.55874 -3 -0.795609 -3 0 
C -3 0.795609 -2.683901 1.55874 -2.12132 2.12132 
C -1.55874 2.683901 -0.795609 3 0 3 
z
" style="stroke: #fc0307"/>
     </defs>
     <g>
      <use xlink:href="#m8c0cd97421" x="424.827031" y="65.702823" style="fill: #fc0307; stroke: #fc0307"/>
     </g>
    </g>
    <g id="text_20">
     <!-- af -->
     <g transform="translate(442.827031 68.327823) scale(0.1 -0.1)">
      <use xlink:href="#DejaVuSans-61"/>
      <use xlink:href="#DejaVuSans-66" x="61.279297"/>
     </g>
    </g>
    <g id="patch_18">
     <path d="M 414.827031 83.005948 
L 434.827031 83.005948 
L 434.827031 76.005948 
L 414.827031 76.005948 
z
" style="fill: #989898; stroke: #000000; stroke-linejoin: miter"/>
    </g>
    <g id="text_21">
     <!-- bf -->
     <g transform="translate(442.827031 83.005948) scale(0.1 -0.1)">
      <use xlink:href="#DejaVuSans-62"/>
      <use xlink:href="#DejaVuSans-66" x="63.476562"/>
     </g>
    </g>
    <g id="patch_19">
     <path d="M 414.827031 97.684073 
L 434.827031 97.684073 
L 434.827031 90.684073 
L 414.827031 90.684073 
z
" style="fill: #ed8f91; stroke: #000000; stroke-linejoin: miter"/>
    </g>
    <g id="text_22">
     <!-- af -->
     <g transform="translate(442.827031 97.684073) scale(0.1 -0.1)">
      <use xlink:href="#DejaVuSans-61"/>
      <use xlink:href="#DejaVuSans-66" x="61.279297"/>
     </g>
    </g>
   </g>
  </g>
 </g>
 <defs>
  <clipPath id="p3d78191f1d">
   <rect x="43.78125" y="22.373136" width="357.12" height="266.112"/>
  </clipPath>
 </defs>
</svg>
